<?xml version="1.0" encoding="utf-8"?>
<!-- Generator: Adobe Illustrator 16.0.0, SVG Export Plug-In . SVG Version: 6.00 Build 0)  -->
<!DOCTYPE svg PUBLIC "-//W3C//DTD SVG 1.1//EN" "http://www.w3.org/Graphics/SVG/1.1/DTD/svg11.dtd">
<svg version="1.1" id="Layer_1" xmlns="http://www.w3.org/2000/svg" xmlns:xlink="http://www.w3.org/1999/xlink" x="0px" y="0px"
	 width="1038px" height="375px" viewBox="0 0 1038 375" enable-background="new 0 0 1038 375" xml:space="preserve">
<rect display="none" fill="#EE1C4E" width="1038" height="375"/>
<g>
	<path d="M752.678,219.072h-38.72c-0.285,0-2.791,0.163-2.791,5.816c0,5.654,2.506,5.817,2.791,5.817h38.72
		c0.286,0,2.792-0.163,2.792-5.817C755.47,219.235,752.964,219.072,752.678,219.072"/>
	<path d="M797.497,190.184c-21.057,0-35.763,14.645-35.763,35.612v7.865c0,21.301,14.919,35.613,37.125,35.613
		c18.074,0,33.168-11.013,33.644-24.511c0.011-0.118,0.014-0.542-0.402-0.997c-0.85-0.931-2.925-1.402-6.168-1.402
		c-5.958,0-6.421,1.79-6.421,2.339c0,6.467-8.3,13.391-20.652,13.391c-13.951,0-22.618-8.434-22.618-22.012v-2.049h50.296
		c5.824,0,6.119-2.2,6.119-2.642v-5.596C832.656,205.161,817.87,190.184,797.497,190.184 M819.634,224.063h-43.394
		c0.03-13.31,8.809-22.246,21.861-22.246C810.176,201.817,818.947,210.927,819.634,224.063"/>
	<path d="M881.284,190.486c-31.749,0-35.426,3.05-35.741,3.396l-0.175,0.193v72.103c0,0.467,0.347,2.793,7.179,2.793
		c6.977,0,7.33-2.326,7.33-2.793V202.12h21.407c17.396,0,17.626,16.036,17.627,16.719v47.34c0,0.467,0.346,2.793,7.178,2.793
		c6.977,0,7.328-2.326,7.328-2.793v-47.34C913.417,218.555,913.049,190.486,881.284,190.486"/>
	<path d="M988.817,155.699c-6.831,0-7.177,2.326-7.177,2.792v32.712c-5.153-0.279-12.219-0.415-21.561-0.415
		c-31.617,0-31.981,28.37-31.981,28.656v20.872c0,0.287,0.364,28.655,31.981,28.655c31.752,0,35.427-3.05,35.741-3.397l0.175-0.193
		v-106.89C995.996,158.025,995.649,155.699,988.817,155.699 M960.08,257.338c-17.396,0-17.625-16.327-17.626-17.021v-20.871
		c0.001-0.696,0.229-17.023,17.626-17.023h21.561v54.916H960.08z"/>
	<path d="M440.571,161.329h-59.593c-7.119,0-7.48,2.326-7.48,2.792v102.093c0,0.317,0.215,3.096,7.632,3.096
		c0.073,0,7.33-0.769,7.33-3.096V222.12h45.761c0.285,0,2.79-0.172,2.79-6.12c0-6.241-2.505-6.423-2.79-6.423h-45.761v-35.252
		h52.111c0.286,0,2.793-0.176,2.793-6.271C443.364,161.653,441.037,161.329,440.571,161.329"/>
	<path d="M497.131,192.354c-0.219-0.051-5.52-1.229-18.754-1.229c-27.282,0-27.597,19.686-27.597,19.884v55.508
		c0,0.466,0.346,2.793,7.178,2.793c6.976,0,7.33-2.327,7.33-2.793v-55.508c0-0.083,0.177-8.25,15.508-8.25
		c11.112,0,15.993,1.032,16.041,1.043l0.145,0.016c0.27,0,2.641-0.155,2.641-5.515C499.623,193.442,497.468,192.476,497.131,192.354
		"/>
	<path d="M537.21,190.52c-21.073,0-36.368,14.979-36.368,35.614v7.864c0,20.969,14.955,35.613,36.368,35.613
		c21.505,0,36.521-14.645,36.521-35.613v-7.864C573.732,205.498,558.373,190.52,537.21,190.52 M515.35,224.621
		c0-13.257,8.785-22.164,21.86-22.164c13.373,0,22.014,8.7,22.014,22.164v10.891c0,13.464-8.641,22.163-22.014,22.163
		c-13.279,0-21.86-8.699-21.86-22.163V224.621z"/>
	<path d="M621.451,190.823c-31.749,0-35.426,3.05-35.741,3.397l-0.175,0.192v72.104c0,0.466,0.348,2.793,7.18,2.793
		c6.975,0,7.327-2.327,7.327-2.793v-64.06h21.409c17.396,0,17.625,16.037,17.626,16.72v47.34c0,0.466,0.348,2.793,7.18,2.793
		c6.976,0,7.328-2.327,7.328-2.793v-47.34C653.584,218.893,653.217,190.823,621.451,190.823"/>
	<path d="M703.727,256.919h-7.563c-7.973,0-8.098-6.753-8.099-7.039v-46.667h15.207c0.285,0,2.793-0.164,2.793-5.816
		c0-5.654-2.508-5.817-2.793-5.817h-15.207v-18.383c0-0.817-0.933-2.187-7.178-2.187s-7.179,1.37-7.179,2.187v18.383h-13.24
		c-0.286,0-2.792,0.163-2.792,5.817c0,5.652,2.506,5.816,2.792,5.816h13.24v48.33c0,0.17,0.258,17.01,22.455,17.01h7.563
		c0.391,0,2.339-0.281,2.339-5.817S704.118,256.919,703.727,256.919"/>
	<path d="M385.948,106.218c-7.781,0-12.449,5.131-12.449,13.165v3.702c0,8.033,4.668,13.163,12.491,13.163
		c6.729,0,11.398-3.742,11.398-9.085v-0.799c0,0-0.084-0.673-1.682-0.673c-1.768,0-1.894,0.673-1.894,0.673v0.673
		c0,3.577-3.365,5.847-7.865,5.847c-5.51,0-8.623-3.406-8.623-9.295v-4.711c0-5.847,3.155-9.338,8.58-9.338
		c4.501,0,7.908,2.441,7.908,5.806v0.63c0,0,0.126,0.632,1.85,0.632c1.642,0,1.726-0.632,1.726-0.632v-0.757
		C397.388,109.962,392.593,106.218,385.948,106.218"/>
	<path d="M429.846,106.387c-1.724,0-2.018,0.673-2.018,0.673l-11.861,28.684c0,0,0,0.504,2.061,0.504
		c1.935,0,2.145-0.504,2.145-0.504l2.817-7.192h13.67l2.818,7.192c0,0,0.21,0.504,2.104,0.504c1.851,0,1.935-0.504,1.935-0.504
		l-11.693-28.684C431.823,107.06,431.529,106.387,429.846,106.387 M424.168,125.481l5.678-14.383l5.594,14.383H424.168z"/>
	<path d="M492.798,106.387c-1.936,0-2.146,0.504-2.146,0.504l-10.558,24.31l-10.642-24.31c0,0-0.168-0.504-2.187-0.504
		c-2.188,0-2.188,0.504-2.188,0.504v28.685c0,0,0,0.589,1.767,0.589c1.641,0,1.641-0.589,1.641-0.589v-23.385l9.968,23.301
		c0,0,0.211,0.589,1.641,0.589s1.599-0.589,1.599-0.589l9.968-23.554v23.638c0,0,0,0.589,1.684,0.589
		c1.724,0,1.724-0.589,1.724-0.589v-28.685C495.069,106.891,495.069,106.387,492.798,106.387"/>
	<path d="M531.394,106.301c-9.085,0-11.188,0.885-11.188,0.885v28.389c0,0,0,0.589,1.893,0.589s1.893-0.589,1.893-0.589v-10.682
		c1.641,0.084,4.038,0.167,7.403,0.167c8.791,0,8.791-7.78,8.791-7.78v-3.197C540.185,114.083,540.185,106.301,531.394,106.301
		 M536.399,117.195c0,0,0,4.964-5.047,4.964h-7.361v-12.997h7.361c5.047,0,5.047,5.005,5.047,5.005V117.195z"/>
	<path d="M565.198,106.302c-1.893,0-1.893,0.589-1.893,0.589v28.685c0,0,0,0.589,1.935,0.589c1.851,0,1.851-0.589,1.851-0.589
		v-28.685C567.09,106.891,567.09,106.302,565.198,106.302"/>
	<path d="M613.601,106.302c-1.893,0-1.893,0.589-1.893,0.589v23.007l-15.689-23.133c0,0-0.294-0.463-1.892-0.463
		c-1.894,0-1.894,0.589-1.894,0.589v28.685c0,0,0,0.589,1.936,0.589c1.85,0,1.85-0.589,1.85-0.589v-23.132l15.689,23.258
		c0,0,0.294,0.463,1.935,0.463c1.852,0,1.852-0.589,1.852-0.589v-28.685C615.495,106.891,615.495,106.302,613.601,106.302"/>
	<path d="M650.936,106.387c-1.724,0-2.019,0.673-2.019,0.673l-11.861,28.684c0,0,0,0.504,2.063,0.504
		c1.934,0,2.145-0.504,2.145-0.504l2.817-7.192h13.67l2.818,7.192c0,0,0.211,0.504,2.103,0.504c1.851,0,1.935-0.504,1.935-0.504
		l-11.692-28.684C652.914,107.06,652.62,106.387,650.936,106.387 M645.258,125.481l5.678-14.383l5.595,14.383H645.258z"/>
	<path d="M697.191,120.056c-4.669-1.556-8.496-2.692-8.496-6.057c0-2.944,2.733-4.753,6.729-4.753c4.584,0,6.52,2.398,6.52,5.804
		v0.632c0,0,0.169,0.63,1.808,0.63c1.683,0,1.767-0.63,1.767-0.63v-0.8c0-4.627-2.775-8.664-10.262-8.664
		c-6.52,0-10.348,3.028-10.348,7.865c0,5.3,4.543,6.94,9.212,8.455c4.29,1.387,8.159,2.943,8.159,6.266
		c0,2.776-2.397,4.416-6.855,4.416c-5.3,0-7.487-2.313-7.487-5.845v-0.716c0,0-0.169-0.63-1.809-0.63s-1.766,0.63-1.766,0.63v0.841
		c0,4.5,2.649,8.748,11.02,8.748c7.318,0,10.684-3.279,10.684-7.654C706.066,123.505,701.481,121.528,697.191,120.056"/>
	<path d="M253.292,89.207l6.324-10.957l22.787,13.153l-6.323,10.957L253.292,89.207z M207.715,62.902l6.324-10.957l22.787,13.153
		l-6.323,10.956L207.715,62.902z"/>
	<path d="M88.484,233.38l6.284,10.977c0.707,1.234,2.28,1.662,3.515,0.955l9.335-5.343c1.235-0.707,1.663-2.281,0.956-3.516
		l-6.284-10.977c-0.707-1.235-2.281-1.663-3.516-0.956l-9.334,5.344C88.205,230.57,87.777,232.145,88.484,233.38"/>
	<path d="M274.235,141.621l-6.284-10.977c-0.707-1.234-2.281-1.662-3.516-0.955l-9.334,5.342c-1.233,0.707-1.661,2.281-0.955,3.516
		l6.284,10.977c0.706,1.234,2.28,1.662,3.516,0.955l9.333-5.343C274.513,144.43,274.942,142.856,274.235,141.621"/>
	<path d="M272.99,230.484l-9.298-5.405c-1.229-0.716-2.807-0.299-3.521,0.932l-6.358,10.934c-0.715,1.229-0.298,2.807,0.933,3.521
		l9.297,5.407c1.229,0.715,2.807,0.297,3.521-0.933l6.358-10.934C274.636,232.776,274.219,231.2,272.99,230.484"/>
	<path d="M89.728,144.516l9.299,5.406c1.229,0.715,2.806,0.298,3.521-0.932l6.358-10.934c0.715-1.229,0.298-2.806-0.932-3.521
		l-9.299-5.407c-1.229-0.715-2.807-0.298-3.521,0.932l-6.358,10.934C88.081,142.224,88.498,143.801,89.728,144.516"/>
	<path d="M181.359,118.012c-38.315,0-69.487,31.172-69.487,69.488c0,38.315,31.172,69.488,69.487,69.488
		s69.488-31.173,69.488-69.488C250.847,149.185,219.674,118.012,181.359,118.012 M176.836,168.922c0,0.485-0.211,0.927-0.564,1.182
		l-23.57,17.034c-0.092,0.066-0.151,0.211-0.151,0.371s0.06,0.307,0.152,0.374l23.568,17.014c0.354,0.255,0.565,0.697,0.565,1.181
		v12.363c0,0.56-0.274,1.049-0.718,1.276c-0.159,0.08-0.328,0.121-0.496,0.121c-0.226,0-0.452-0.072-0.649-0.216l-42.841-30.925
		c-0.353-0.254-0.564-0.696-0.565-1.18c0-0.485,0.211-0.928,0.564-1.185l42.841-30.959c0.345-0.25,0.773-0.284,1.146-0.094
		c0.444,0.227,0.719,0.716,0.719,1.276V168.922z M230.584,188.698l-42.875,30.952c-0.196,0.143-0.422,0.215-0.647,0.215
		c-0.168,0-0.337-0.04-0.496-0.121c-0.443-0.227-0.719-0.716-0.719-1.275v-12.363c0-0.484,0.212-0.926,0.566-1.183l23.604-17.039
		c0.091-0.066,0.149-0.211,0.15-0.371c0-0.16-0.06-0.307-0.151-0.374l-23.604-17.059c-0.353-0.254-0.564-0.696-0.564-1.182v-12.366
		c0-0.56,0.275-1.049,0.718-1.276c0.373-0.19,0.801-0.155,1.146,0.095l42.875,30.983c0.354,0.257,0.564,0.699,0.563,1.184
		C231.15,188.002,230.939,188.443,230.584,188.698"/>
	<path fill="#E13F26" d="M181.359,317.061c-9.626,0-17.457,7.832-17.457,17.457c0,9.626,7.831,17.458,17.457,17.458
		s17.457-7.832,17.457-17.458C198.816,324.893,190.985,317.061,181.359,317.061"/>
	<path fill="#12A1D3" d="M303.258,243.552c-9.626,0-17.457,7.832-17.457,17.457c0,9.626,7.831,17.458,17.457,17.458
		s17.457-7.832,17.457-17.458C320.715,251.384,312.884,243.552,303.258,243.552"/>
	<path fill="#F5AA1C" d="M59.461,243.552c-9.626,0-17.457,7.832-17.457,17.457c0,9.626,7.831,17.458,17.457,17.458
		s17.457-7.832,17.457-17.458C76.918,251.384,69.087,243.552,59.461,243.552"/>
	<path fill="#243E96" d="M181.359,57.94c9.626,0,17.457-7.832,17.457-17.457c0-9.626-7.831-17.458-17.457-17.458
		s-17.457,7.832-17.457,17.458C163.902,50.108,171.733,57.94,181.359,57.94"/>
	<path fill="#20AA52" d="M59.461,96.534c-9.626,0-17.457,7.832-17.457,17.457c0,9.626,7.831,17.458,17.457,17.458
		s17.457-7.832,17.457-17.458C76.918,104.366,69.087,96.534,59.461,96.534"/>
	<path fill="#C61B75" d="M303.258,131.449c9.626,0,17.457-7.831,17.457-17.457s-7.831-17.458-17.457-17.458
		s-17.457,7.832-17.457,17.458S293.632,131.449,303.258,131.449"/>
	<path d="M187.682,274.988h-12.647c-1.423,0-2.576,1.153-2.576,2.576v10.755c0,1.423,1.153,2.576,2.576,2.576h12.647
		c1.423,0,2.576-1.153,2.576-2.576v-10.755C190.258,276.142,189.105,274.988,187.682,274.988"/>
	<path d="M175.035,100.012h12.647c1.423,0,2.576-1.153,2.576-2.576V86.681c0-1.423-1.153-2.576-2.576-2.576h-12.647
		c-1.423,0-2.576,1.153-2.576,2.576v10.755C172.458,98.859,173.612,100.012,175.035,100.012"/>
	<path d="M148.594,52.014l6.324,10.956l-22.789,13.153l-6.324-10.957L148.594,52.014z M103.018,78.318l6.323,10.957l-22.788,13.152
		L80.23,91.471L103.018,78.318z"/>
	<path d="M276.08,272.55l6.324,10.956l-22.789,13.153l-6.324-10.957L276.08,272.55z M230.503,298.855l6.323,10.957l-22.788,13.151
		l-6.323-10.957L230.503,298.855z"/>
	<path d="M125.806,309.744l6.324-10.957l22.787,13.152l-6.323,10.957L125.806,309.744z M80.23,283.438l6.324-10.956l22.787,13.152
		l-6.323,10.956L80.23,283.438z"/>
	<path d="M65.787,226.968h-12.65v-26.313h12.65V226.968z M65.787,174.344h-12.65v-26.311h12.65V174.344z"/>
	<path d="M309.583,226.968h-12.65v-26.312h12.65V226.968z M309.583,174.345h-12.65v-26.312h12.65V174.345z"/>
</g>
</svg>
