<svg xmlns="http://www.w3.org/2000/svg" width="1038" height="375" viewBox="0 0 1038 375"><path d="M752.678 219.072h-38.72c-.285 0-2.791.163-2.791 5.816 0 5.654 2.506 5.817 2.791 5.817h38.72c.286 0 2.792-.163 2.792-5.817 0-5.653-2.506-5.816-2.792-5.816M797.497 190.184c-21.057 0-35.763 14.645-35.763 35.612v7.865c0 21.301 14.919 35.613 37.125 35.613 18.074 0 33.168-11.013 33.644-24.511.011-.118.014-.542-.402-.997-.85-.931-2.925-1.402-6.168-1.402-5.958 0-6.421 1.79-6.421 2.339 0 6.467-8.3 13.391-20.652 13.391-13.951 0-22.618-8.434-22.618-22.012v-2.049h50.296c5.824 0 6.119-2.2 6.119-2.642v-5.596c-.001-20.634-14.787-35.611-35.16-35.611m22.137 33.879H776.24c.03-13.31 8.809-22.246 21.861-22.246 12.075 0 20.846 9.11 21.533 22.246M881.284 190.486c-31.749 0-35.426 3.05-35.741 3.396l-.175.193v72.103c0 .467.347 2.793 7.179 2.793 6.977 0 7.33-2.326 7.33-2.793V202.12h21.407c17.396 0 17.626 16.036 17.627 16.719v47.34c0 .467.346 2.793 7.178 2.793 6.977 0 7.328-2.326 7.328-2.793v-47.34c0-.284-.368-28.353-32.133-28.353M988.817 155.699c-6.831 0-7.177 2.326-7.177 2.792v32.712c-5.153-.279-12.219-.415-21.561-.415-31.617 0-31.981 28.37-31.981 28.656v20.872c0 .287.364 28.655 31.981 28.655 31.752 0 35.427-3.05 35.741-3.397l.175-.193v-106.89c.001-.466-.346-2.792-7.178-2.792M960.08 257.338c-17.396 0-17.625-16.327-17.626-17.021v-20.871c.001-.696.229-17.023 17.626-17.023h21.561v54.916H960.08zM440.571 161.329h-59.593c-7.119 0-7.48 2.326-7.48 2.792v102.093c0 .317.215 3.096 7.632 3.096.073 0 7.33-.769 7.33-3.096V222.12h45.761c.285 0 2.79-.172 2.79-6.12 0-6.241-2.505-6.423-2.79-6.423H388.46v-35.252h52.111c.286 0 2.793-.176 2.793-6.271 0-6.401-2.327-6.725-2.793-6.725M497.131 192.354c-.219-.051-5.52-1.229-18.754-1.229-27.282 0-27.597 19.686-27.597 19.884v55.508c0 .466.346 2.793 7.178 2.793 6.976 0 7.33-2.327 7.33-2.793v-55.508c0-.083.177-8.25 15.508-8.25 11.112 0 15.993 1.032 16.041 1.043l.145.016c.27 0 2.641-.155 2.641-5.515 0-4.861-2.155-5.827-2.492-5.949M537.21 190.52c-21.073 0-36.368 14.979-36.368 35.614v7.864c0 20.969 14.955 35.613 36.368 35.613 21.505 0 36.521-14.645 36.521-35.613v-7.864c.001-20.636-15.358-35.614-36.521-35.614m-21.86 34.101c0-13.257 8.785-22.164 21.86-22.164 13.373 0 22.014 8.7 22.014 22.164v10.891c0 13.464-8.641 22.163-22.014 22.163-13.279 0-21.86-8.699-21.86-22.163v-10.891zM621.451 190.823c-31.749 0-35.426 3.05-35.741 3.397l-.175.192v72.104c0 .466.348 2.793 7.18 2.793 6.975 0 7.327-2.327 7.327-2.793v-64.06h21.409c17.396 0 17.625 16.037 17.626 16.72v47.34c0 .466.348 2.793 7.18 2.793 6.976 0 7.328-2.327 7.328-2.793v-47.34c-.001-.283-.368-28.353-32.134-28.353M703.727 256.919h-7.563c-7.973 0-8.098-6.753-8.099-7.039v-46.667h15.207c.285 0 2.793-.164 2.793-5.816 0-5.654-2.508-5.817-2.793-5.817h-15.207v-18.383c0-.817-.933-2.187-7.178-2.187s-7.179 1.37-7.179 2.187v18.383h-13.24c-.286 0-2.792.163-2.792 5.817 0 5.652 2.506 5.816 2.792 5.816h13.24v48.33c0 .17.258 17.01 22.455 17.01h7.563c.391 0 2.339-.281 2.339-5.817s-1.947-5.817-2.338-5.817M385.948 106.218c-7.781 0-12.449 5.131-12.449 13.165v3.702c0 8.033 4.668 13.163 12.491 13.163 6.729 0 11.398-3.742 11.398-9.085v-.799s-.084-.673-1.682-.673c-1.768 0-1.894.673-1.894.673v.673c0 3.577-3.365 5.847-7.865 5.847-5.51 0-8.623-3.406-8.623-9.295v-4.711c0-5.847 3.155-9.338 8.58-9.338 4.501 0 7.908 2.441 7.908 5.806v.63s.126.632 1.85.632c1.642 0 1.726-.632 1.726-.632v-.757c0-5.257-4.795-9.001-11.44-9.001M429.846 106.387c-1.724 0-2.018.673-2.018.673l-11.861 28.684s0 .504 2.061.504c1.935 0 2.145-.504 2.145-.504l2.817-7.192h13.67l2.818 7.192s.21.504 2.104.504c1.851 0 1.935-.504 1.935-.504l-11.693-28.684c-.001 0-.295-.673-1.978-.673m-5.678 19.094l5.678-14.383 5.594 14.383h-11.272zM492.798 106.387c-1.936 0-2.146.504-2.146.504l-10.558 24.31-10.642-24.31s-.168-.504-2.187-.504c-2.188 0-2.188.504-2.188.504v28.685s0 .589 1.767.589c1.641 0 1.641-.589 1.641-.589v-23.385l9.968 23.301s.211.589 1.641.589 1.599-.589 1.599-.589l9.968-23.554v23.638s0 .589 1.684.589c1.724 0 1.724-.589 1.724-.589v-28.685s0-.504-2.271-.504M531.394 106.301c-9.085 0-11.188.885-11.188.885v28.389s0 .589 1.893.589 1.893-.589 1.893-.589v-10.682c1.641.084 4.038.167 7.403.167 8.791 0 8.791-7.78 8.791-7.78v-3.197c-.001 0-.001-7.782-8.792-7.782m5.005 10.894s0 4.964-5.047 4.964h-7.361v-12.997h7.361c5.047 0 5.047 5.005 5.047 5.005v3.028zM565.198 106.302c-1.893 0-1.893.589-1.893.589v28.685s0 .589 1.935.589c1.851 0 1.851-.589 1.851-.589v-28.685c-.001 0-.001-.589-1.893-.589M613.601 106.302c-1.893 0-1.893.589-1.893.589v23.007l-15.689-23.133s-.294-.463-1.892-.463c-1.894 0-1.894.589-1.894.589v28.685s0 .589 1.936.589c1.85 0 1.85-.589 1.85-.589v-23.132l15.689 23.258s.294.463 1.935.463c1.852 0 1.852-.589 1.852-.589v-28.685s0-.589-1.894-.589M650.936 106.387c-1.724 0-2.019.673-2.019.673l-11.861 28.684s0 .504 2.063.504c1.934 0 2.145-.504 2.145-.504l2.817-7.192h13.67l2.818 7.192s.211.504 2.103.504c1.851 0 1.935-.504 1.935-.504l-11.692-28.684c-.001 0-.295-.673-1.979-.673m-5.678 19.094l5.678-14.383 5.595 14.383h-11.273zM697.191 120.056c-4.669-1.556-8.496-2.692-8.496-6.057 0-2.944 2.733-4.753 6.729-4.753 4.584 0 6.52 2.398 6.52 5.804v.632s.169.63 1.808.63c1.683 0 1.767-.63 1.767-.63v-.8c0-4.627-2.775-8.664-10.262-8.664-6.52 0-10.348 3.028-10.348 7.865 0 5.3 4.543 6.94 9.212 8.455 4.29 1.387 8.159 2.943 8.159 6.266 0 2.776-2.397 4.416-6.855 4.416-5.3 0-7.487-2.313-7.487-5.845v-.716s-.169-.63-1.809-.63-1.766.63-1.766.63v.841c0 4.5 2.649 8.748 11.02 8.748 7.318 0 10.684-3.279 10.684-7.654-.001-5.089-4.586-7.066-8.876-8.538M253.292 89.207l6.324-10.957 22.787 13.153-6.323 10.957-22.788-13.153zm-45.577-26.305l6.324-10.957 22.787 13.153-6.323 10.956-22.788-13.152zM88.484 233.38l6.284 10.977a2.576 2.576 0 0 0 3.515.955l9.335-5.343a2.576 2.576 0 0 0 .956-3.516l-6.284-10.977a2.576 2.576 0 0 0-3.516-.956l-9.334 5.344a2.576 2.576 0 0 0-.956 3.516M274.235 141.621l-6.284-10.977a2.577 2.577 0 0 0-3.516-.955l-9.334 5.342a2.579 2.579 0 0 0-.955 3.516l6.284 10.977a2.576 2.576 0 0 0 3.516.955l9.333-5.343a2.576 2.576 0 0 0 .956-3.515M272.99 230.484l-9.298-5.405a2.573 2.573 0 0 0-3.521.932l-6.358 10.934a2.574 2.574 0 0 0 .933 3.521l9.297 5.407a2.575 2.575 0 0 0 3.521-.933l6.358-10.934a2.578 2.578 0 0 0-.932-3.522M89.728 144.516l9.299 5.406a2.575 2.575 0 0 0 3.521-.932l6.358-10.934a2.575 2.575 0 0 0-.932-3.521l-9.299-5.407a2.575 2.575 0 0 0-3.521.932l-6.358 10.934a2.576 2.576 0 0 0 .932 3.522M181.359 118.012c-38.315 0-69.487 31.172-69.487 69.488 0 38.315 31.172 69.488 69.487 69.488s69.488-31.173 69.488-69.488-31.173-69.488-69.488-69.488m-4.523 50.91c0 .485-.211.927-.564 1.182l-23.57 17.034c-.092.066-.151.211-.151.371s.06.307.152.374l23.568 17.014c.354.255.565.697.565 1.181v12.363c0 .56-.274 1.049-.718 1.276-.159.08-.328.121-.496.121-.226 0-.452-.072-.649-.216l-42.841-30.925c-.353-.254-.564-.696-.565-1.18 0-.485.211-.928.564-1.185l42.841-30.959c.345-.25.773-.284 1.146-.094.444.227.719.716.719 1.276v12.367zm53.748 19.776l-42.875 30.952a1.096 1.096 0 0 1-.647.215 1.09 1.09 0 0 1-.496-.121c-.443-.227-.719-.716-.719-1.275v-12.363c0-.484.212-.926.566-1.183l23.604-17.039c.091-.066.149-.211.15-.371 0-.16-.06-.307-.151-.374l-23.604-17.059c-.353-.254-.564-.696-.564-1.182v-12.366c0-.56.275-1.049.718-1.276.373-.19.801-.155 1.146.095l42.875 30.983c.354.257.564.699.563 1.184 0 .484-.211.925-.566 1.18"/><path fill="#E13F26" d="M181.359 317.061c-9.626 0-17.457 7.832-17.457 17.457 0 9.626 7.831 17.458 17.457 17.458s17.457-7.832 17.457-17.458c0-9.625-7.831-17.457-17.457-17.457"/><path fill="#12A1D3" d="M303.258 243.552c-9.626 0-17.457 7.832-17.457 17.457 0 9.626 7.831 17.458 17.457 17.458s17.457-7.832 17.457-17.458c0-9.625-7.831-17.457-17.457-17.457"/><path fill="#F5AA1C" d="M59.461 243.552c-9.626 0-17.457 7.832-17.457 17.457 0 9.626 7.831 17.458 17.457 17.458s17.457-7.832 17.457-17.458c0-9.625-7.831-17.457-17.457-17.457"/><path fill="#243E96" d="M181.359 57.94c9.626 0 17.457-7.832 17.457-17.457 0-9.626-7.831-17.458-17.457-17.458s-17.457 7.832-17.457 17.458c0 9.625 7.831 17.457 17.457 17.457"/><path fill="#20AA52" d="M59.461 96.534c-9.626 0-17.457 7.832-17.457 17.457 0 9.626 7.831 17.458 17.457 17.458s17.457-7.832 17.457-17.458c0-9.625-7.831-17.457-17.457-17.457"/><path fill="#C61B75" d="M303.258 131.449c9.626 0 17.457-7.831 17.457-17.457s-7.831-17.458-17.457-17.458-17.457 7.832-17.457 17.458 7.831 17.457 17.457 17.457"/><path d="M187.682 274.988h-12.647a2.576 2.576 0 0 0-2.576 2.576v10.755a2.576 2.576 0 0 0 2.576 2.576h12.647a2.576 2.576 0 0 0 2.576-2.576v-10.755a2.576 2.576 0 0 0-2.576-2.576M175.035 100.012h12.647a2.576 2.576 0 0 0 2.576-2.576V86.681a2.576 2.576 0 0 0-2.576-2.576h-12.647a2.576 2.576 0 0 0-2.576 2.576v10.755a2.575 2.575 0 0 0 2.576 2.576M148.594 52.014l6.324 10.956-22.789 13.153-6.324-10.957 22.789-13.152zm-45.576 26.304l6.323 10.957-22.788 13.152-6.323-10.956 22.788-13.153zM276.08 272.55l6.324 10.956-22.789 13.153-6.324-10.957 22.789-13.152zm-45.577 26.305l6.323 10.957-22.788 13.151-6.323-10.957 22.788-13.151zM125.806 309.744l6.324-10.957 22.787 13.152-6.323 10.957-22.788-13.152zM80.23 283.438l6.324-10.956 22.787 13.152-6.323 10.956-22.788-13.152zM65.787 226.968h-12.65v-26.313h12.65v26.313zm0-52.624h-12.65v-26.311h12.65v26.311zM309.583 226.968h-12.65v-26.312h12.65v26.312zm0-52.623h-12.65v-26.312h12.65v26.312z"/></svg>